<svg xmlns="http://www.w3.org/2000/svg" xmlns:xlink="http://www.w3.org/1999/xlink" contentStyleType="text/css" data-diagram-type="CLASS" height="934.375px" preserveAspectRatio="none" style="width:765px;height:934px;background:#FFFFFF;" version="1.1" viewBox="0 0 765 934" width="765.625px" zoomAndPan="magnify"><?plantuml 1.2026.4?><defs/><g><g class="title" data-source-line="2"><text fill="#000000" font-family="'Lucida Grande'" font-size="21.875" font-weight="700" lengthAdjust="spacing" textLength="411.611" x="172.17" y="36.7737">DP#5 Singleton - &#51204;&#50669; &#49444;&#51221; &#45800;&#51068; &#51064;&#49828;&#53556;&#49828;</text></g><!--class AppConfig--><g class="entity" data-qualified-name="AppConfig" data-source-line="3" id="ent0001"><rect fill="#FFCCCC" height="706.781" style="stroke:#000000;stroke-width:1.5625;" width="472.5922" x="10.9375" y="69.5129"/><ellipse cx="184.2018" cy="101.2482" fill="#ADD1B2" rx="17.1875" ry="17.1875" style="stroke:#181818;stroke-width:1.5625;"/><path d="M188.0661,110.8467 Q187.1582,111.3136 186.1595,111.5471 Q185.1608,111.7805 184.0584,111.7805 Q180.1414,111.7805 178.0792,109.1995 Q176.017,106.6185 176.017,101.7418 Q176.017,96.8521 178.0792,94.2711 Q180.1414,91.6901 184.0584,91.6901 Q185.1608,91.6901 186.1725,91.9235 Q187.1841,92.157 188.0661,92.6239 L188.0661,96.8781 Q187.0804,95.9702 186.153,95.5486 Q185.2257,95.1271 184.24,95.1271 Q182.1388,95.1271 181.0688,96.7937 Q179.9988,98.4604 179.9988,101.7418 Q179.9988,105.0102 181.0688,106.6769 Q182.1388,108.3435 184.24,108.3435 Q185.2257,108.3435 186.153,107.922 Q187.0804,107.5005 188.0661,106.5926 Z " fill="#000000"/><text fill="#000000" font-family="Lucida Grande" font-size="18.75" font-style="italic" lengthAdjust="spacing" textLength="104.5258" x="220.3613" y="95.4529">&#171;Singleton&#187;</text><text fill="#000000" font-family="'Lucida Grande'" font-size="21.875" lengthAdjust="spacing" textLength="112.7823" x="216.2331" y="120.5566">AppConfig</text><line style="stroke:#000000;stroke-width:1.5625;" x1="12.5" x2="481.9672" y1="132.9834" y2="132.9834"/><g data-visibility-modifier="PRIVATE_FIELD"><rect fill="none" height="9.375" style="stroke:#C82930;stroke-width:1.5625;" width="9.375" x="23.4375" y="149.7711"/></g><text fill="#000000" font-family="'Lucida Grande'" font-size="21.875" lengthAdjust="spacing" textLength="214.9048" x="42.1875" y="160.3821">instance: AppConfig</text><g data-visibility-modifier="PRIVATE_FIELD"><rect fill="none" height="9.375" style="stroke:#C82930;stroke-width:1.5625;" width="9.375" x="23.4375" y="175.5341"/></g><text fill="#000000" font-family="'Lucida Grande'" font-size="21.875" lengthAdjust="spacing" textLength="187.8387" x="42.1875" y="186.145">fontFamily: String</text><g data-visibility-modifier="PRIVATE_FIELD"><rect fill="none" height="9.375" style="stroke:#C82930;stroke-width:1.5625;" width="9.375" x="23.4375" y="201.297"/></g><text fill="#000000" font-family="'Lucida Grande'" font-size="21.875" lengthAdjust="spacing" textLength="127.9922" x="42.1875" y="211.908">fontSize: int</text><g data-visibility-modifier="PRIVATE_FIELD"><rect fill="none" height="9.375" style="stroke:#C82930;stroke-width:1.5625;" width="9.375" x="23.4375" y="227.0599"/></g><text fill="#000000" font-family="'Lucida Grande'" font-size="21.875" lengthAdjust="spacing" textLength="222.4777" x="42.1875" y="237.6709">displayLocale: Locale</text><g data-visibility-modifier="PRIVATE_FIELD"><rect fill="none" height="9.375" style="stroke:#C82930;stroke-width:1.5625;" width="9.375" x="23.4375" y="252.8229"/></g><text fill="#000000" font-family="'Lucida Grande'" font-size="21.875" lengthAdjust="spacing" textLength="199.9298" x="42.1875" y="263.4338">currency: Currency</text><g data-visibility-modifier="PRIVATE_FIELD"><rect fill="none" height="9.375" style="stroke:#C82930;stroke-width:1.5625;" width="9.375" x="23.4375" y="278.5858"/></g><text fill="#000000" font-family="'Lucida Grande'" font-size="21.875" lengthAdjust="spacing" textLength="253.1967" x="42.1875" y="289.1968">modernTheme: boolean</text><g data-visibility-modifier="PRIVATE_FIELD"><rect fill="none" height="9.375" style="stroke:#C82930;stroke-width:1.5625;" width="9.375" x="23.4375" y="304.3488"/></g><text fill="#000000" font-family="'Lucida Grande'" font-size="21.875" lengthAdjust="spacing" textLength="295.3018" x="42.1875" y="314.9597">showSeatMetadata: boolean</text><g data-visibility-modifier="PRIVATE_FIELD"><rect fill="none" height="9.375" style="stroke:#C82930;stroke-width:1.5625;" width="9.375" x="23.4375" y="330.1117"/></g><text fill="#000000" font-family="'Lucida Grande'" font-size="21.875" lengthAdjust="spacing" textLength="431.9672" x="42.1875" y="340.7227">listeners: List&lt;Consumer&lt;AppConfig&gt;&gt;</text><line style="stroke:#000000;stroke-width:1.5625;" x1="12.5" x2="481.9672" y1="351.5869" y2="351.5869"/><g data-visibility-modifier="PUBLIC_METHOD"><ellipse cx="28.125" cy="373.0621" fill="#84BE84" rx="4.6875" ry="4.6875" style="stroke:#038048;stroke-width:1.5625;"/></g><text fill="#000000" font-family="'Lucida Grande'" font-size="21.875" lengthAdjust="spacing" textLength="263.1195" x="42.1875" y="378.9856">getInstance(): AppConfig</text><g data-visibility-modifier="PUBLIC_METHOD"><ellipse cx="28.125" cy="398.8251" fill="#84BE84" rx="4.6875" ry="4.6875" style="stroke:#038048;stroke-width:1.5625;"/></g><text fill="#000000" font-family="'Lucida Grande'" font-size="21.875" lengthAdjust="spacing" textLength="239.7598" x="42.1875" y="404.7485">getFontFamily(): String</text><g data-visibility-modifier="PUBLIC_METHOD"><ellipse cx="28.125" cy="424.588" fill="#84BE84" rx="4.6875" ry="4.6875" style="stroke:#038048;stroke-width:1.5625;"/></g><text fill="#000000" font-family="'Lucida Grande'" font-size="21.875" lengthAdjust="spacing" textLength="219.6686" x="42.1875" y="430.5115">setFontFamily(): void</text><g data-visibility-modifier="PUBLIC_METHOD"><ellipse cx="28.125" cy="450.351" fill="#84BE84" rx="4.6875" ry="4.6875" style="stroke:#038048;stroke-width:1.5625;"/></g><text fill="#000000" font-family="'Lucida Grande'" font-size="21.875" lengthAdjust="spacing" textLength="179.9133" x="42.1875" y="456.2744">getFontSize(): int</text><g data-visibility-modifier="PUBLIC_METHOD"><ellipse cx="28.125" cy="476.1139" fill="#84BE84" rx="4.6875" ry="4.6875" style="stroke:#038048;stroke-width:1.5625;"/></g><text fill="#000000" font-family="'Lucida Grande'" font-size="21.875" lengthAdjust="spacing" textLength="194.194" x="42.1875" y="482.0374">setFontSize(): void</text><g data-visibility-modifier="PUBLIC_METHOD"><ellipse cx="28.125" cy="501.8768" fill="#84BE84" rx="4.6875" ry="4.6875" style="stroke:#038048;stroke-width:1.5625;"/></g><text fill="#000000" font-family="'Lucida Grande'" font-size="21.875" lengthAdjust="spacing" textLength="273.3307" x="42.1875" y="507.8003">getDisplayLocale(): Locale</text><g data-visibility-modifier="PUBLIC_METHOD"><ellipse cx="28.125" cy="527.6398" fill="#84BE84" rx="4.6875" ry="4.6875" style="stroke:#038048;stroke-width:1.5625;"/></g><text fill="#000000" font-family="'Lucida Grande'" font-size="21.875" lengthAdjust="spacing" textLength="248.7961" x="42.1875" y="533.5632">setDisplayLocale(): void</text><g data-visibility-modifier="PUBLIC_METHOD"><ellipse cx="28.125" cy="553.4027" fill="#84BE84" rx="4.6875" ry="4.6875" style="stroke:#038048;stroke-width:1.5625;"/></g><text fill="#000000" font-family="'Lucida Grande'" font-size="21.875" lengthAdjust="spacing" textLength="252.0966" x="42.1875" y="559.3262">getCurrency(): Currency</text><g data-visibility-modifier="PUBLIC_METHOD"><ellipse cx="28.125" cy="579.1656" fill="#84BE84" rx="4.6875" ry="4.6875" style="stroke:#038048;stroke-width:1.5625;"/></g><text fill="#000000" font-family="'Lucida Grande'" font-size="21.875" lengthAdjust="spacing" textLength="199.4492" x="42.1875" y="585.0891">setCurrency(): void</text><g data-visibility-modifier="PUBLIC_METHOD"><ellipse cx="28.125" cy="604.9286" fill="#84BE84" rx="4.6875" ry="4.6875" style="stroke:#038048;stroke-width:1.5625;"/></g><text fill="#000000" font-family="'Lucida Grande'" font-size="21.875" lengthAdjust="spacing" textLength="283.3176" x="42.1875" y="610.8521">isModernTheme(): boolean</text><g data-visibility-modifier="PUBLIC_METHOD"><ellipse cx="28.125" cy="630.6915" fill="#84BE84" rx="4.6875" ry="4.6875" style="stroke:#038048;stroke-width:1.5625;"/></g><text fill="#000000" font-family="'Lucida Grande'" font-size="21.875" lengthAdjust="spacing" textLength="257.4051" x="42.1875" y="636.615">setModernTheme(): void</text><g data-visibility-modifier="PUBLIC_METHOD"><ellipse cx="28.125" cy="656.4545" fill="#84BE84" rx="4.6875" ry="4.6875" style="stroke:#038048;stroke-width:1.5625;"/></g><text fill="#000000" font-family="'Lucida Grande'" font-size="21.875" lengthAdjust="spacing" textLength="327.6337" x="42.1875" y="662.3779">isShowSeatMetadata(): boolean</text><g data-visibility-modifier="PUBLIC_METHOD"><ellipse cx="28.125" cy="682.2174" fill="#84BE84" rx="4.6875" ry="4.6875" style="stroke:#038048;stroke-width:1.5625;"/></g><text fill="#000000" font-family="'Lucida Grande'" font-size="21.875" lengthAdjust="spacing" textLength="301.7212" x="42.1875" y="688.1409">setShowSeatMetadata(): void</text><g data-visibility-modifier="PUBLIC_METHOD"><ellipse cx="28.125" cy="707.9803" fill="#84BE84" rx="4.6875" ry="4.6875" style="stroke:#038048;stroke-width:1.5625;"/></g><text fill="#000000" font-family="'Lucida Grande'" font-size="21.875" lengthAdjust="spacing" textLength="276.9516" x="42.1875" y="713.9038">addChangeListener(): void</text><g data-visibility-modifier="PUBLIC_METHOD"><ellipse cx="28.125" cy="733.7433" fill="#84BE84" rx="4.6875" ry="4.6875" style="stroke:#038048;stroke-width:1.5625;"/></g><text fill="#000000" font-family="'Lucida Grande'" font-size="21.875" lengthAdjust="spacing" textLength="315.8417" x="42.1875" y="739.6667">removeChangeListener(): void</text><g data-visibility-modifier="PRIVATE_METHOD"><rect fill="#F24D5C" height="9.375" style="stroke:#C82930;stroke-width:1.5625;" width="9.375" x="23.4375" y="754.8187"/></g><text fill="#000000" font-family="'Lucida Grande'" font-size="21.875" lengthAdjust="spacing" textLength="229.2816" x="42.1875" y="765.4297">notifyListeners(): void</text></g><g class="entity" data-qualified-name="GMN3" data-source-line="31" id="ent0004"><path d="M105.0937,871.6067 L105.0937,911.1544 A0,0 0 0 0 105.0937,911.1544 L389.3595,911.1544 A0,0 0 0 0 389.3595,911.1544 L389.3595,887.2317 L373.7345,871.6067 L253.4844,871.6067 L247.2344,776.5754 L240.9844,871.6067 L105.0937,871.6067 A0,0 0 0 0 105.0937,871.6067" fill="#FEFFDD" style="stroke:#181818;stroke-width:0.7813;"/><path d="M373.7345,871.6067 L373.7345,887.2317 L389.3595,887.2317 L373.7345,871.6067" fill="#FEFFDD" style="stroke:#181818;stroke-width:0.7813;"/><text fill="#000000" font-family="'Lucida Grande'" font-size="20.3125" lengthAdjust="spacing" textLength="251.4533" x="114.4687" y="899.0573">private &#49373;&#49457;&#51088;, &#45800;&#51068; &#51064;&#49828;&#53556;&#49828;</text></g><!--link AppConfig to AppConfig--><g class="link" data-entity-1="ent0001" data-entity-2="ent0001" data-link-type="dependency" data-source-line="30" id="lnk2"><path codeLine="30" d="M484.1406,355.9973 C516.5781,367.1223 538.2188,389.4192 538.2188,422.9036 C538.2188,456.3879 523.9681,476.1503 491.5306,487.2753" fill="none" id="AppConfig-to-AppConfig" style="stroke:#000000;stroke-width:1.5625;stroke-dasharray:10.9375,10.9375;"/><polygon fill="#000000" points="484.1406,489.8098,499.4701,491.1597,491.5306,487.2753,495.4149,479.3357,484.1406,489.8098" style="stroke:#000000;stroke-width:1.5625;stroke-linejoin:miter;stroke-miterlimit:10;"/><text fill="#000000" font-family="'Lucida Grande'" font-size="20.3125" lengthAdjust="spacing" textLength="186.4822" x="547.5938" y="430.8229">getInstance() (DCL)</text></g><?plantuml-src TPC_ImCn6CRt-nIlT6cfxUPIoe5SEH1Q4CvTujtRDf1BZajQESN9ctHn4QTAXmuk3eA3Wz_8-1rCQEzF_tX3BZo_vmbvtoH7b8Ti5Y5SIfKnx2Qpc3cAAeOmE6-SG43vXA4I73gWbxb-UGUTh_Jo6NuUt_JY6_JYIp-iVlDFCpeX8rB2QP9uWe_f1FhzCk-wqF1zptnmwm1qA9UAy11xbTtAOy6LJsBAiXu4AZNfGWteZJ5JhgmGKPamaWr5I9XHrtyBmbcQ8WzDsjlCh1gB25D-CSNOcA-4O4YurULKN0T8r0WLYOWYMv1HgP1ZAitwPjetcvIp6DD-kM7NjRwE6TeJL6URYfgjxPeiyykoB2qBQyjTD1SqgcLiqLPUbrtO2xLc7jGRObdP4XlQexLaqIShrtfcOtLK9AWSLSsqeEgOZUp0AXNij7e_UiXHv4aKULF29pZS74eTfXYBEVxBErmeEiuA8ajqvrGtjTjrQ_Us1rld2Ss1DsmvPXqqUrPAn236M_OafNDYgBvVwFn3lpuT7teVVm00?></g></svg>