<svg xmlns="http://www.w3.org/2000/svg" xmlns:xlink="http://www.w3.org/1999/xlink" contentStyleType="text/css" data-diagram-type="CLASS" height="1054.6875px" preserveAspectRatio="none" style="width:1815px;height:1054px;background:#FFFFFF;" version="1.1" viewBox="0 0 1815 1054" width="1815.625px" zoomAndPan="magnify"><?plantuml 1.2026.4?><defs/><g><g class="title" data-source-line="2"><text fill="#000000" font-family="'Lucida Grande'" font-size="21.875" font-weight="700" lengthAdjust="spacing" textLength="372.3787" x="716.8404" y="36.7737">DP#9 Decorator - &#51340;&#49437; &#48512;&#44032;&#50741;&#49496; &#45572;&#51201;</text></g><!--class SeatView--><g class="entity" data-qualified-name="SeatView" data-source-line="3" id="ent0001"><rect fill="#FFCCCC" height="191.5222" style="stroke:#000000;stroke-width:1.5625;" width="401.8295" x="604.6875" y="69.5129"/><ellipse cx="739.2403" cy="101.2482" fill="#A9DCDF" rx="17.1875" ry="17.1875" style="stroke:#181818;stroke-width:1.5625;"/><path d="M739.0266,93.9796 L737.2238,101.9043 L740.8424,101.9043 Z M736.692,90.4778 L741.3742,90.4778 L746.6011,109.8419 L742.775,109.8419 L741.5817,105.056 L736.4586,105.056 L735.2913,109.8419 L731.4651,109.8419 Z " fill="#000000"/><text fill="#000000" font-family="Lucida Grande" font-size="18.75" font-style="italic" lengthAdjust="spacing" textLength="125.6927" x="768.1465" y="95.4529">&#171;Component&#187;</text><text fill="#000000" font-family="'Lucida Grande'" font-size="21.875" font-style="italic" lengthAdjust="spacing" textLength="93.898" x="784.0439" y="120.5566">SeatView</text><line style="stroke:#000000;stroke-width:1.5625;" x1="606.25" x2="1004.9545" y1="132.9834" y2="132.9834"/><line style="stroke:#000000;stroke-width:1.5625;" x1="606.25" x2="1004.9545" y1="145.4834" y2="145.4834"/><g data-visibility-modifier="PUBLIC_METHOD"><ellipse cx="621.875" cy="166.9586" fill="#84BE84" rx="4.6875" ry="4.6875" style="stroke:#038048;stroke-width:1.5625;"/></g><text fill="#000000" font-family="'Lucida Grande'" font-size="21.875" lengthAdjust="spacing" textLength="150.5402" x="635.9375" y="172.8821">getSeat(): Seat</text><g data-visibility-modifier="PUBLIC_METHOD"><ellipse cx="621.875" cy="192.7216" fill="#84BE84" rx="4.6875" ry="4.6875" style="stroke:#038048;stroke-width:1.5625;"/></g><text fill="#000000" font-family="'Lucida Grande'" font-size="21.875" lengthAdjust="spacing" textLength="246.019" x="635.9375" y="198.645">getDescription(): String</text><g data-visibility-modifier="PUBLIC_METHOD"><ellipse cx="621.875" cy="218.4845" fill="#84BE84" rx="4.6875" ry="4.6875" style="stroke:#038048;stroke-width:1.5625;"/></g><text fill="#000000" font-family="'Lucida Grande'" font-size="21.875" lengthAdjust="spacing" textLength="285.4965" x="635.9375" y="224.408">getSurcharge(): BigDecimal</text><g data-visibility-modifier="PUBLIC_METHOD"><ellipse cx="621.875" cy="244.2474" fill="#84BE84" rx="4.6875" ry="4.6875" style="stroke:#038048;stroke-width:1.5625;"/></g><text fill="#000000" font-family="'Lucida Grande'" font-size="21.875" lengthAdjust="spacing" textLength="361.2045" x="635.9375" y="250.1709">getMetadataLabels(): List&lt;String&gt;</text></g><!--class BaseSeatView--><g class="entity" data-qualified-name="BaseSeatView" data-source-line="9" id="ent0002"><rect fill="#FFCCCC" height="217.2852" style="stroke:#000000;stroke-width:1.5625;" width="401.8295" x="239.0625" y="381.3567"/><ellipse cx="332.9613" cy="413.0919" fill="#ADD1B2" rx="17.1875" ry="17.1875" style="stroke:#181818;stroke-width:1.5625;"/><path d="M336.8256,422.6905 Q335.9177,423.1574 334.919,423.3908 Q333.9203,423.6243 332.8178,423.6243 Q328.9009,423.6243 326.8387,421.0433 Q324.7765,418.4622 324.7765,413.5855 Q324.7765,408.6959 326.8387,406.1148 Q328.9009,403.5338 332.8178,403.5338 Q333.9203,403.5338 334.9319,403.7673 Q335.9436,404.0007 336.8256,404.4677 L336.8256,408.7218 Q335.8398,407.8139 334.9125,407.3924 Q333.9851,406.9709 332.9994,406.9709 Q330.8983,406.9709 329.8283,408.6375 Q328.7582,410.3041 328.7582,413.5855 Q328.7582,416.854 329.8283,418.5206 Q330.8983,420.1873 332.9994,420.1873 Q333.9851,420.1873 334.9125,419.7657 Q335.8398,419.3442 336.8256,418.4363 Z " fill="#000000"/><text fill="#000000" font-family="Lucida Grande" font-size="18.75" font-style="italic" lengthAdjust="spacing" textLength="207.0007" x="361.8675" y="407.2966">&#171;ConcreteComponent&#187;</text><text fill="#000000" font-family="'Lucida Grande'" font-size="21.875" lengthAdjust="spacing" textLength="141.8991" x="394.4183" y="432.4004">BaseSeatView</text><line style="stroke:#000000;stroke-width:1.5625;" x1="240.625" x2="639.3295" y1="444.8271" y2="444.8271"/><g data-visibility-modifier="PRIVATE_FIELD"><rect fill="none" height="9.375" style="stroke:#C82930;stroke-width:1.5625;" width="9.375" x="251.5625" y="461.6149"/></g><text fill="#000000" font-family="'Lucida Grande'" font-size="21.875" lengthAdjust="spacing" textLength="101.6739" x="270.3125" y="472.2258">seat: Seat</text><line style="stroke:#000000;stroke-width:1.5625;" x1="240.625" x2="639.3295" y1="483.0901" y2="483.0901"/><g data-visibility-modifier="PUBLIC_METHOD"><ellipse cx="256.25" cy="504.5653" fill="#84BE84" rx="4.6875" ry="4.6875" style="stroke:#038048;stroke-width:1.5625;"/></g><text fill="#000000" font-family="'Lucida Grande'" font-size="21.875" lengthAdjust="spacing" textLength="150.5402" x="270.3125" y="510.4888">getSeat(): Seat</text><g data-visibility-modifier="PUBLIC_METHOD"><ellipse cx="256.25" cy="530.3282" fill="#84BE84" rx="4.6875" ry="4.6875" style="stroke:#038048;stroke-width:1.5625;"/></g><text fill="#000000" font-family="'Lucida Grande'" font-size="21.875" lengthAdjust="spacing" textLength="246.019" x="270.3125" y="536.2517">getDescription(): String</text><g data-visibility-modifier="PUBLIC_METHOD"><ellipse cx="256.25" cy="556.0912" fill="#84BE84" rx="4.6875" ry="4.6875" style="stroke:#038048;stroke-width:1.5625;"/></g><text fill="#000000" font-family="'Lucida Grande'" font-size="21.875" lengthAdjust="spacing" textLength="285.4965" x="270.3125" y="562.0146">getSurcharge(): BigDecimal</text><g data-visibility-modifier="PUBLIC_METHOD"><ellipse cx="256.25" cy="581.8541" fill="#84BE84" rx="4.6875" ry="4.6875" style="stroke:#038048;stroke-width:1.5625;"/></g><text fill="#000000" font-family="'Lucida Grande'" font-size="21.875" lengthAdjust="spacing" textLength="361.2045" x="270.3125" y="587.7776">getMetadataLabels(): List&lt;String&gt;</text></g><!--class AbstractSeatDecorator--><g class="entity" data-qualified-name="AbstractSeatDecorator" data-source-line="17" id="ent0003"><rect fill="#FFCCCC" height="217.2852" style="stroke:#000000;stroke-width:1.5625;" width="401.8295" x="695.3125" y="381.3567"/><ellipse cx="770.7588" cy="413.0919" fill="#A9DCDF" rx="17.1875" ry="17.1875" style="stroke:#181818;stroke-width:1.5625;"/><path d="M770.5452,405.8234 L768.7424,413.748 L772.361,413.748 Z M768.2106,402.3215 L772.8928,402.3215 L778.1197,421.6857 L774.2935,421.6857 L773.1003,416.8997 L767.9771,416.8997 L766.8098,421.6857 L762.9837,421.6857 Z " fill="#000000"/><text fill="#000000" font-family="Lucida Grande" font-size="18.75" font-style="italic" lengthAdjust="spacing" textLength="109.4879" x="866.8739" y="407.2966">&#171;Decorator&#187;</text><text fill="#000000" font-family="'Lucida Grande'" font-size="21.875" font-style="italic" lengthAdjust="spacing" textLength="237.6556" x="802.7901" y="432.4004">AbstractSeatDecorator</text><line style="stroke:#000000;stroke-width:1.5625;" x1="696.875" x2="1095.5795" y1="444.8271" y2="444.8271"/><g data-visibility-modifier="PROTECTED_FIELD"><polygon fill="none" points="712.5,458.4899,718.75,464.7399,712.5,470.9899,706.25,464.7399" style="stroke:#B38D22;stroke-width:1.5625;stroke-linejoin:miter;stroke-miterlimit:10;"/></g><text fill="#000000" font-family="'Lucida Grande'" font-size="21.875" lengthAdjust="spacing" textLength="227.5299" x="726.5625" y="472.2258">component: SeatView</text><line style="stroke:#000000;stroke-width:1.5625;" x1="696.875" x2="1095.5795" y1="483.0901" y2="483.0901"/><g data-visibility-modifier="PUBLIC_METHOD"><ellipse cx="712.5" cy="504.5653" fill="#84BE84" rx="4.6875" ry="4.6875" style="stroke:#038048;stroke-width:1.5625;"/></g><text fill="#000000" font-family="'Lucida Grande'" font-size="21.875" lengthAdjust="spacing" textLength="150.5402" x="726.5625" y="510.4888">getSeat(): Seat</text><g data-visibility-modifier="PUBLIC_METHOD"><ellipse cx="712.5" cy="530.3282" fill="#84BE84" rx="4.6875" ry="4.6875" style="stroke:#038048;stroke-width:1.5625;"/></g><text fill="#000000" font-family="'Lucida Grande'" font-size="21.875" lengthAdjust="spacing" textLength="246.019" x="726.5625" y="536.2517">getDescription(): String</text><g data-visibility-modifier="PUBLIC_METHOD"><ellipse cx="712.5" cy="556.0912" fill="#84BE84" rx="4.6875" ry="4.6875" style="stroke:#038048;stroke-width:1.5625;"/></g><text fill="#000000" font-family="'Lucida Grande'" font-size="21.875" lengthAdjust="spacing" textLength="285.4965" x="726.5625" y="562.0146">getSurcharge(): BigDecimal</text><g data-visibility-modifier="PUBLIC_METHOD"><ellipse cx="712.5" cy="581.8541" fill="#84BE84" rx="4.6875" ry="4.6875" style="stroke:#038048;stroke-width:1.5625;"/></g><text fill="#000000" font-family="'Lucida Grande'" font-size="21.875" lengthAdjust="spacing" textLength="361.2045" x="726.5625" y="587.7776">getMetadataLabels(): List&lt;String&gt;</text></g><!--class WindowSeatDecorator--><g class="entity" data-qualified-name="WindowSeatDecorator" data-source-line="25" id="ent0004"><rect fill="#FFCCCC" height="152.2888" style="stroke:#000000;stroke-width:1.5625;" width="401.8295" x="10.9375" y="719.7161"/><ellipse cx="89.3532" cy="744.7161" fill="#ADD1B2" rx="17.1875" ry="17.1875" style="stroke:#181818;stroke-width:1.5625;"/><path d="M93.2175,754.3146 Q92.3096,754.7815 91.3109,755.015 Q90.3122,755.2484 89.2097,755.2484 Q85.2928,755.2484 83.2306,752.6674 Q81.1684,750.0864 81.1684,745.2097 Q81.1684,740.32 83.2306,737.739 Q85.2928,735.158 89.2097,735.158 Q90.3122,735.158 91.3239,735.3914 Q92.3355,735.6249 93.2175,736.0918 L93.2175,740.3459 Q92.2318,739.438 91.3044,739.0165 Q90.377,738.595 89.3913,738.595 Q87.2902,738.595 86.2202,740.2616 Q85.1501,741.9283 85.1501,745.2097 Q85.1501,748.4781 86.2202,750.1448 Q87.2902,751.8114 89.3913,751.8114 Q90.377,751.8114 91.3044,751.3899 Q92.2318,750.9684 93.2175,750.0605 Z " fill="#000000"/><text fill="#000000" font-family="'Lucida Grande'" font-size="21.875" lengthAdjust="spacing" textLength="231.7169" x="121.3844" y="752.9833">WindowSeatDecorator</text><line style="stroke:#000000;stroke-width:1.5625;" x1="12.5" x2="411.2045" y1="769.7161" y2="769.7161"/><line style="stroke:#000000;stroke-width:1.5625;" x1="12.5" x2="411.2045" y1="782.2161" y2="782.2161"/><g data-visibility-modifier="PUBLIC_METHOD"><ellipse cx="28.125" cy="803.6913" fill="#84BE84" rx="4.6875" ry="4.6875" style="stroke:#038048;stroke-width:1.5625;"/></g><text fill="#000000" font-family="'Lucida Grande'" font-size="21.875" lengthAdjust="spacing" textLength="246.019" x="42.1875" y="809.6147">getDescription(): String</text><g data-visibility-modifier="PUBLIC_METHOD"><ellipse cx="28.125" cy="829.4542" fill="#84BE84" rx="4.6875" ry="4.6875" style="stroke:#038048;stroke-width:1.5625;"/></g><text fill="#000000" font-family="'Lucida Grande'" font-size="21.875" lengthAdjust="spacing" textLength="361.2045" x="42.1875" y="835.3777">getMetadataLabels(): List&lt;String&gt;</text><g data-visibility-modifier="PRIVATE_METHOD"><rect fill="#F24D5C" height="9.375" style="stroke:#C82930;stroke-width:1.5625;" width="9.375" x="23.4375" y="850.5297"/></g><text fill="#000000" font-family="'Lucida Grande'" font-size="21.875" lengthAdjust="spacing" textLength="212.117" x="42.1875" y="861.1406">addedLabel(): String</text></g><!--class AisleSeatDecorator--><g class="entity" data-qualified-name="AisleSeatDecorator" data-source-line="30" id="ent0005"><rect fill="#FFCCCC" height="152.2888" style="stroke:#000000;stroke-width:1.5625;" width="401.8295" x="467.1875" y="719.7161"/><ellipse cx="561.4006" cy="744.7161" fill="#ADD1B2" rx="17.1875" ry="17.1875" style="stroke:#181818;stroke-width:1.5625;"/><path d="M565.2649,754.3146 Q564.357,754.7815 563.3583,755.015 Q562.3596,755.2484 561.2572,755.2484 Q557.3402,755.2484 555.278,752.6674 Q553.2158,750.0864 553.2158,745.2097 Q553.2158,740.32 555.278,737.739 Q557.3402,735.158 561.2572,735.158 Q562.3596,735.158 563.3713,735.3914 Q564.3829,735.6249 565.2649,736.0918 L565.2649,740.3459 Q564.2792,739.438 563.3518,739.0165 Q562.4245,738.595 561.4388,738.595 Q559.3376,738.595 558.2676,740.2616 Q557.1976,741.9283 557.1976,745.2097 Q557.1976,748.4781 558.2676,750.1448 Q559.3376,751.8114 561.4388,751.8114 Q562.4245,751.8114 563.3518,751.3899 Q564.2792,750.9684 565.2649,750.0605 Z " fill="#000000"/><text fill="#000000" font-family="'Lucida Grande'" font-size="21.875" lengthAdjust="spacing" textLength="200.1221" x="593.4319" y="752.9833">AisleSeatDecorator</text><line style="stroke:#000000;stroke-width:1.5625;" x1="468.75" x2="867.4545" y1="769.7161" y2="769.7161"/><line style="stroke:#000000;stroke-width:1.5625;" x1="468.75" x2="867.4545" y1="782.2161" y2="782.2161"/><g data-visibility-modifier="PUBLIC_METHOD"><ellipse cx="484.375" cy="803.6913" fill="#84BE84" rx="4.6875" ry="4.6875" style="stroke:#038048;stroke-width:1.5625;"/></g><text fill="#000000" font-family="'Lucida Grande'" font-size="21.875" lengthAdjust="spacing" textLength="246.019" x="498.4375" y="809.6147">getDescription(): String</text><g data-visibility-modifier="PUBLIC_METHOD"><ellipse cx="484.375" cy="829.4542" fill="#84BE84" rx="4.6875" ry="4.6875" style="stroke:#038048;stroke-width:1.5625;"/></g><text fill="#000000" font-family="'Lucida Grande'" font-size="21.875" lengthAdjust="spacing" textLength="361.2045" x="498.4375" y="835.3777">getMetadataLabels(): List&lt;String&gt;</text><g data-visibility-modifier="PRIVATE_METHOD"><rect fill="#F24D5C" height="9.375" style="stroke:#C82930;stroke-width:1.5625;" width="9.375" x="479.6875" y="850.5297"/></g><text fill="#000000" font-family="'Lucida Grande'" font-size="21.875" lengthAdjust="spacing" textLength="212.117" x="498.4375" y="861.1406">addedLabel(): String</text></g><!--class ExtraLegroomDecorator--><g class="entity" data-qualified-name="ExtraLegroomDecorator" data-source-line="35" id="ent0006"><rect fill="#FFCCCC" height="203.8147" style="stroke:#000000;stroke-width:1.5625;" width="401.8295" x="923.4375" y="693.9504"/><ellipse cx="991.3319" cy="718.9504" fill="#ADD1B2" rx="17.1875" ry="17.1875" style="stroke:#181818;stroke-width:1.5625;"/><path d="M995.1962,728.549 Q994.2883,729.0159 993.2896,729.2494 Q992.2909,729.4828 991.1884,729.4828 Q987.2715,729.4828 985.2093,726.9018 Q983.147,724.3208 983.147,719.4441 Q983.147,714.5544 985.2093,711.9734 Q987.2715,709.3923 991.1884,709.3923 Q992.2909,709.3923 993.3025,709.6258 Q994.3142,709.8593 995.1962,710.3262 L995.1962,714.5803 Q994.2104,713.6724 993.2831,713.2509 Q992.3557,712.8294 991.37,712.8294 Q989.2689,712.8294 988.1989,714.496 Q987.1288,716.1627 987.1288,719.4441 Q987.1288,722.7125 988.1989,724.3791 Q989.2689,726.0458 991.37,726.0458 Q992.3557,726.0458 993.2831,725.6243 Q994.2104,725.2027 995.1962,724.2948 Z " fill="#000000"/><text fill="#000000" font-family="'Lucida Grande'" font-size="21.875" lengthAdjust="spacing" textLength="253.0365" x="1023.0862" y="727.2177">ExtraLegroomDecorator</text><line style="stroke:#000000;stroke-width:1.5625;" x1="925" x2="1323.7045" y1="743.9504" y2="743.9504"/><g data-visibility-modifier="PRIVATE_FIELD"><rect fill="none" height="9.375" style="stroke:#C82930;stroke-width:1.5625;" width="9.375" x="935.9375" y="760.7382"/></g><text fill="#000000" font-family="'Lucida Grande'" font-size="21.875" lengthAdjust="spacing" textLength="259.8831" x="954.6875" y="771.3491">SURCHARGE: BigDecimal</text><line style="stroke:#000000;stroke-width:1.5625;" x1="925" x2="1323.7045" y1="782.2134" y2="782.2134"/><g data-visibility-modifier="PUBLIC_METHOD"><ellipse cx="940.625" cy="803.6886" fill="#84BE84" rx="4.6875" ry="4.6875" style="stroke:#038048;stroke-width:1.5625;"/></g><text fill="#000000" font-family="'Lucida Grande'" font-size="21.875" lengthAdjust="spacing" textLength="246.019" x="954.6875" y="809.6121">getDescription(): String</text><g data-visibility-modifier="PUBLIC_METHOD"><ellipse cx="940.625" cy="829.4515" fill="#84BE84" rx="4.6875" ry="4.6875" style="stroke:#038048;stroke-width:1.5625;"/></g><text fill="#000000" font-family="'Lucida Grande'" font-size="21.875" lengthAdjust="spacing" textLength="285.4965" x="954.6875" y="835.375">getSurcharge(): BigDecimal</text><g data-visibility-modifier="PUBLIC_METHOD"><ellipse cx="940.625" cy="855.2145" fill="#84BE84" rx="4.6875" ry="4.6875" style="stroke:#038048;stroke-width:1.5625;"/></g><text fill="#000000" font-family="'Lucida Grande'" font-size="21.875" lengthAdjust="spacing" textLength="361.2045" x="954.6875" y="861.1379">getMetadataLabels(): List&lt;String&gt;</text><g data-visibility-modifier="PRIVATE_METHOD"><rect fill="#F24D5C" height="9.375" style="stroke:#C82930;stroke-width:1.5625;" width="9.375" x="935.9375" y="876.2899"/></g><text fill="#000000" font-family="'Lucida Grande'" font-size="21.875" lengthAdjust="spacing" textLength="212.117" x="954.6875" y="886.9009">addedLabel(): String</text></g><!--class LoungeAccessDecorator--><g class="entity" data-qualified-name="LoungeAccessDecorator" data-source-line="43" id="ent0007"><rect fill="#FFCCCC" height="203.8147" style="stroke:#000000;stroke-width:1.5625;" width="401.8295" x="1379.6875" y="693.9504"/><ellipse cx="1446.7503" cy="718.9504" fill="#ADD1B2" rx="17.1875" ry="17.1875" style="stroke:#181818;stroke-width:1.5625;"/><path d="M1450.6146,728.549 Q1449.7067,729.0159 1448.708,729.2494 Q1447.7094,729.4828 1446.6069,729.4828 Q1442.69,729.4828 1440.6277,726.9018 Q1438.5655,724.3208 1438.5655,719.4441 Q1438.5655,714.5544 1440.6277,711.9734 Q1442.69,709.3923 1446.6069,709.3923 Q1447.7094,709.3923 1448.721,709.6258 Q1449.7327,709.8593 1450.6146,710.3262 L1450.6146,714.5803 Q1449.6289,713.6724 1448.7016,713.2509 Q1447.7742,712.8294 1446.7885,712.8294 Q1444.6873,712.8294 1443.6173,714.496 Q1442.5473,716.1627 1442.5473,719.4441 Q1442.5473,722.7125 1443.6173,724.3791 Q1444.6873,726.0458 1446.7885,726.0458 Q1447.7742,726.0458 1448.7016,725.6243 Q1449.6289,725.2027 1450.6146,724.2948 Z " fill="#000000"/><text fill="#000000" font-family="'Lucida Grande'" font-size="21.875" lengthAdjust="spacing" textLength="254.8843" x="1478.3199" y="727.2177">LoungeAccessDecorator</text><line style="stroke:#000000;stroke-width:1.5625;" x1="1381.25" x2="1779.9545" y1="743.9504" y2="743.9504"/><g data-visibility-modifier="PRIVATE_FIELD"><rect fill="none" height="9.375" style="stroke:#C82930;stroke-width:1.5625;" width="9.375" x="1392.1875" y="760.7382"/></g><text fill="#000000" font-family="'Lucida Grande'" font-size="21.875" lengthAdjust="spacing" textLength="259.8831" x="1410.9375" y="771.3491">SURCHARGE: BigDecimal</text><line style="stroke:#000000;stroke-width:1.5625;" x1="1381.25" x2="1779.9545" y1="782.2134" y2="782.2134"/><g data-visibility-modifier="PUBLIC_METHOD"><ellipse cx="1396.875" cy="803.6886" fill="#84BE84" rx="4.6875" ry="4.6875" style="stroke:#038048;stroke-width:1.5625;"/></g><text fill="#000000" font-family="'Lucida Grande'" font-size="21.875" lengthAdjust="spacing" textLength="246.019" x="1410.9375" y="809.6121">getDescription(): String</text><g data-visibility-modifier="PUBLIC_METHOD"><ellipse cx="1396.875" cy="829.4515" fill="#84BE84" rx="4.6875" ry="4.6875" style="stroke:#038048;stroke-width:1.5625;"/></g><text fill="#000000" font-family="'Lucida Grande'" font-size="21.875" lengthAdjust="spacing" textLength="285.4965" x="1410.9375" y="835.375">getSurcharge(): BigDecimal</text><g data-visibility-modifier="PUBLIC_METHOD"><ellipse cx="1396.875" cy="855.2145" fill="#84BE84" rx="4.6875" ry="4.6875" style="stroke:#038048;stroke-width:1.5625;"/></g><text fill="#000000" font-family="'Lucida Grande'" font-size="21.875" lengthAdjust="spacing" textLength="361.2045" x="1410.9375" y="861.1379">getMetadataLabels(): List&lt;String&gt;</text><g data-visibility-modifier="PRIVATE_METHOD"><rect fill="#F24D5C" height="9.375" style="stroke:#C82930;stroke-width:1.5625;" width="9.375" x="1392.1875" y="876.2899"/></g><text fill="#000000" font-family="'Lucida Grande'" font-size="21.875" lengthAdjust="spacing" textLength="212.117" x="1410.9375" y="886.9009">addedLabel(): String</text></g><g class="entity" data-qualified-name="GMN15" data-source-line="58" id="ent0016"><path d="M1367.6406,993.0754 L1367.6406,1032.6232 A0,0 0 0 0 1367.6406,1032.6232 L1793.5595,1032.6232 A0,0 0 0 0 1793.5595,1032.6232 L1793.5595,1008.7004 L1777.9345,993.0754 L1586.8594,993.0754 L1580.6094,898.0911 L1574.3594,993.0754 L1367.6406,993.0754 A0,0 0 0 0 1367.6406,993.0754" fill="#FEFFDD" style="stroke:#181818;stroke-width:0.7813;"/><path d="M1777.9345,993.0754 L1777.9345,1008.7004 L1793.5595,1008.7004 L1777.9345,993.0754" fill="#FEFFDD" style="stroke:#181818;stroke-width:0.7813;"/><text fill="#000000" font-family="'Lucida Grande'" font-size="20.3125" lengthAdjust="spacing" textLength="393.1063" x="1377.0156" y="1020.526">&#52285;&#52769;+&#47112;&#44536;&#47352;(+5&#47564;)+&#46972;&#50868;&#51648;(+8&#47564;) &#47088;&#53440;&#51076; &#52404;&#51064;</text></g><!--reverse link SeatView to BaseSeatView--><g class="link" data-entity-1="ent0001" data-entity-2="ent0002" data-link-type="extension" data-source-line="51" id="lnk8"><path codeLine="51" d="M676.7564,280.1658 C634.2095,317.5877 606.2031,342.2161 562.3281,380.8098" fill="none" id="SeatView-backto-BaseSeatView" style="stroke:#000000;stroke-width:1.5625;"/><polygon fill="none" points="697.875,261.5911,670.5648,273.1263,682.948,287.2053,697.875,261.5911" style="stroke:#000000;stroke-width:1.5625;stroke-linejoin:miter;stroke-miterlimit:10;"/></g><!--reverse link SeatView to AbstractSeatDecorator--><g class="link" data-entity-1="ent0001" data-entity-2="ent0003" data-link-type="extension" data-source-line="52" id="lnk9"><path codeLine="52" d="M830.6485,288.9868 C838.4454,327.018 839.9844,334.4817 839.9844,334.4817 C839.9844,334.4817 847.4063,354.7942 856.8594,380.6692" fill="none" id="SeatView-backto-AbstractSeatDecorator" style="stroke:#000000;stroke-width:1.5625;"/><polygon fill="none" points="825,261.4348,821.4645,290.8696,839.8325,287.1039,825,261.4348" style="stroke:#000000;stroke-width:1.5625;stroke-linejoin:miter;stroke-miterlimit:10;"/></g><!--link AbstractSeatDecorator to SeatView--><g class="link" data-entity-1="ent0003" data-entity-2="ent0001" data-link-type="aggregation" data-source-line="53" id="lnk10"><path codeLine="53" d="M860.8209,362.7626 C849.9459,324.1689 844.963,306.5325 834.4162,269.1106" fill="none" id="AbstractSeatDecorator-SeatView" style="stroke:#000000;stroke-width:1.5625;"/><polygon fill="none" points="865.9062,380.8098,869.3793,370.0911,860.8209,362.7626,857.3478,373.4813,865.9062,380.8098" style="stroke:#000000;stroke-width:1.5625;stroke-linejoin:miter;stroke-miterlimit:10;"/><polygon fill="#000000" points="832.2969,261.5911,830.096,276.8217,834.4162,269.1106,842.1272,273.4308,832.2969,261.5911" style="stroke:#000000;stroke-width:1.5625;stroke-linejoin:miter;stroke-miterlimit:10;"/><text fill="#000000" font-family="'Lucida Grande'" font-size="20.3125" lengthAdjust="spacing" textLength="111.2328" x="852.4844" y="329.1198">component</text></g><!--reverse link AbstractSeatDecorator to WindowSeatDecorator--><g class="link" data-entity-1="ent0003" data-entity-2="ent0004" data-link-type="extension" data-source-line="54" id="lnk11"><path codeLine="54" d="M669.258,598.0864 C652.9768,605.727 668.1094,598.6379 668.1094,598.6379 C668.1094,598.6379 439.9844,693.9504 439.9844,693.9504 C439.9844,693.9504 415.7031,704.6223 383,719.0129" fill="none" id="AbstractSeatDecorator-backto-WindowSeatDecorator" style="stroke:#000000;stroke-width:1.5625;"/><polygon fill="none" points="694.7188,586.1379,665.2752,589.5995,673.2408,606.5733,694.7188,586.1379" style="stroke:#000000;stroke-width:1.5625;stroke-linejoin:miter;stroke-miterlimit:10;"/></g><!--reverse link AbstractSeatDecorator to AisleSeatDecorator--><g class="link" data-entity-1="ent0003" data-entity-2="ent0005" data-link-type="extension" data-source-line="55" id="lnk12"><path codeLine="55" d="M798.229,621.5987 C768.2603,661.3643 751.8906,683.0911 724.5781,719.3411" fill="none" id="AbstractSeatDecorator-backto-AisleSeatDecorator" style="stroke:#000000;stroke-width:1.5625;"/><polygon fill="none" points="815.1563,599.1379,790.7421,615.9563,805.716,627.2411,815.1563,599.1379" style="stroke:#000000;stroke-width:1.5625;stroke-linejoin:miter;stroke-miterlimit:10;"/></g><!--reverse link AbstractSeatDecorator to ExtraLegroomDecorator--><g class="link" data-entity-1="ent0003" data-entity-2="ent0006" data-link-type="extension" data-source-line="56" id="lnk13"><path codeLine="56" d="M994.2248,621.5982 C1017.4123,652.3638 1025.6406,663.3098 1048.5,693.6379" fill="none" id="AbstractSeatDecorator-backto-ExtraLegroomDecorator" style="stroke:#000000;stroke-width:1.5625;"/><polygon fill="none" points="977.2969,599.1379,986.738,627.2408,1001.7115,615.9556,977.2969,599.1379" style="stroke:#000000;stroke-width:1.5625;stroke-linejoin:miter;stroke-miterlimit:10;"/></g><!--reverse link AbstractSeatDecorator to LoungeAccessDecorator--><g class="link" data-entity-1="ent0003" data-entity-2="ent0007" data-link-type="extension" data-source-line="57" id="lnk14"><path codeLine="57" d="M1123.5797,592.1262 C1212.2985,631.3762 1290.5469,665.9817 1379.2344,705.2161" fill="none" id="AbstractSeatDecorator-backto-LoungeAccessDecorator" style="stroke:#000000;stroke-width:1.5625;"/><polygon fill="none" points="1097.8594,580.7473,1119.7867,600.6997,1127.3727,583.5528,1097.8594,580.7473" style="stroke:#000000;stroke-width:1.5625;stroke-linejoin:miter;stroke-miterlimit:10;"/></g><?plantuml-src rLHDRzD04BtxLmpA9PMrt90WiYAbIGk78A5Mm15jrYEpahqRxKvK42054QGU-WCgf421GwyHAf03_A5w-G_O-N28STCJYl39tddhzzw-cRqXbOW78S8JIyzZlDaV9B57acA4peFQ7UYWq8QJDi30VJfnep6atuQNaw4x_UhUda9wF79dhptUisIu810njnOEaTCZYKSG16sTzBL2HSqcrFRtsza3Bpm0FqBAOVMTnWo-MEgW5KRsIMergv2HAbh21qOyvIR2lB8heqoRJ7YygDv7uY4dtkKzZ6qEwKfBmVmFJU-LDvUsooskoLF28E5LCfdDi8L2nhQYl7IwhSLdJhxA9mYAzvA7cbYQQnJ9RC_CtCDZgK9zjEwWt1wRH5n3axdZOOZXhFp7vYLzIzeOjyQ-zopBhukHqJgf5i0E7nwqxxKExkwLZhW8xPybT9tuhXwe25j2eBN_aVZLpBzaREqMA9KgfykhdZdDM7DrsJMW6BGhy3E2YjRV1F-xLJUXArjhquRAE3sb2Q6dYNIIsNAJdsxwqK_FZY-_JzFFqxf_Apq_sV7JyG_txiAT3-l-xNm1qW-JNs-6xlq8t9SBDvx-1W00?></g></svg>