<svg xmlns="http://www.w3.org/2000/svg" xmlns:xlink="http://www.w3.org/1999/xlink" contentStyleType="text/css" data-diagram-type="DESCRIPTION" height="1355.5208px" preserveAspectRatio="none" style="width:3900px;height:1355px;background:#FFFFFF;" version="1.1" viewBox="0 0 3900 1355" width="3900px" zoomAndPan="magnify"><?plantuml 1.2026.4?><defs/><g><g class="title" data-source-line="1"><text fill="#000000" font-family="sans-serif" font-size="18.9583" font-weight="700" lengthAdjust="spacing" textLength="512.2916" x="1689.6974" y="31.8705">Use Case Diagram &#8212; Cumulative through Iteration 4</text><text fill="#000000" font-family="sans-serif" font-size="18.9583" font-weight="700" lengthAdjust="spacing" textLength="563.6124" x="1664.037" y="54.1984">(red = use cases newly enabled or changed in Iteration 4)</text></g><!--cluster Korean Air Reservation System--><g class="cluster" data-qualified-name="Korean Air Reservation System" data-source-line="31" id="ent0007"><rect fill="none" height="1000.8781" rx="3.3854" ry="3.3854" style="stroke:#181818;stroke-width:1.3542;" width="2647.3958" x="861.25" y="336.0183"/><text fill="#000000" font-family="sans-serif" font-size="18.9583" font-weight="700" lengthAdjust="spacing" textLength="301.593" x="2034.1514" y="357.0555">Korean Air Reservation System</text></g><!--entity UC_Search--><g class="entity" data-qualified-name="Korean Air Reservation System.UC_Search" data-source-line="32" id="ent0008"><ellipse cx="2650.0982" cy="717.6077" fill="#ECECEC" rx="88.9628" ry="21.0426" style="stroke:#555555;stroke-width:1.8958;"/><text fill="#000000" font-family="sans-serif" font-size="18.9583" lengthAdjust="spacing" textLength="127.941" x="2586.1277" y="724.0321">Search Flights</text></g><!--entity UC_Book--><g class="entity" data-qualified-name="Korean Air Reservation System.UC_Book" data-source-line="33" id="ent0009"><ellipse cx="1729.2758" cy="717.6075" fill="#ECECEC" rx="76.9487" ry="19.8507" style="stroke:#555555;stroke-width:1.8958;"/><text fill="#000000" font-family="sans-serif" font-size="18.9583" lengthAdjust="spacing" textLength="103.0767" x="1677.7375" y="724.0319">Book Flight</text></g><!--entity UC_Pax--><g class="entity" data-qualified-name="Korean Air Reservation System.UC_Pax" data-source-line="34" id="ent0010"><ellipse cx="1857.9218" cy="1026.6551" fill="#ECECEC" rx="113.4031" ry="25.9306" style="stroke:#555555;stroke-width:1.8958;"/><text fill="#000000" font-family="sans-serif" font-size="18.9583" lengthAdjust="spacing" textLength="188.0374" x="1763.9031" y="1033.0795">Enter Passenger Info</text></g><!--entity UC_Pay--><g class="entity" data-qualified-name="Korean Air Reservation System.UC_Pay" data-source-line="35" id="ent0011"><ellipse cx="1448.9566" cy="1026.6565" fill="#ECECEC" rx="90.6597" ry="21.3819" style="stroke:#555555;stroke-width:1.8958;"/><text fill="#000000" font-family="sans-serif" font-size="18.9583" lengthAdjust="spacing" textLength="132.4121" x="1382.7506" y="1033.0808">Make Payment</text></g><!--entity UC_Ticket--><g class="entity" data-qualified-name="Korean Air Reservation System.UC_Ticket" data-source-line="36" id="ent0012"><ellipse cx="1252.601" cy="1293.9768" fill="#ECECEC" rx="89.9541" ry="21.2408" style="stroke:#555555;stroke-width:1.8958;"/><text fill="#000000" font-family="sans-serif" font-size="18.9583" lengthAdjust="spacing" textLength="130.5607" x="1187.3206" y="1300.4011">Issue e-Ticket</text></g><!--entity UC_Lookup--><g class="entity" data-qualified-name="Korean Air Reservation System.UC_Lookup" data-source-line="37" id="ent0013"><ellipse cx="3008.953" cy="419.7209" fill="#ECECEC" rx="112.9457" ry="25.8391" style="stroke:#555555;stroke-width:1.8958;"/><text fill="#000000" font-family="sans-serif" font-size="18.9583" lengthAdjust="spacing" textLength="186.9729" x="2915.4666" y="426.1453">Look up Reservation</text></g><!--entity UC_Cancel--><g class="entity" data-qualified-name="Korean Air Reservation System.UC_Cancel" data-source-line="38" id="ent0014"><ellipse cx="2184.2682" cy="717.6111" fill="#ECECEC" rx="96.7661" ry="22.6032" style="stroke:#555555;stroke-width:1.8958;"/><text fill="#000000" font-family="sans-serif" font-size="18.9583" lengthAdjust="spacing" textLength="148.0287" x="2110.2539" y="724.0354">Cancel / Refund</text></g><!--entity UC_Conn--><g class="entity" data-qualified-name="Korean Air Reservation System.UC_Conn" data-source-line="39" id="ent0015"><ellipse cx="1370.4118" cy="419.7156" fill="#ECECEC" rx="135.8045" ry="30.4109" style="stroke:#555555;stroke-width:1.8958;"/><text fill="#000000" font-family="sans-serif" font-size="18.9583" lengthAdjust="spacing" textLength="238.6639" x="1251.0798" y="426.14">Search Connecting Flights</text></g><!--entity UC_Multi--><g class="entity" data-qualified-name="Korean Air Reservation System.UC_Multi" data-source-line="40" id="ent0016"><ellipse cx="993.9601" cy="419.7142" fill="#ECECEC" rx="111.558" ry="25.5616" style="stroke:#555555;stroke-width:1.8958;"/><text fill="#000000" font-family="sans-serif" font-size="18.9583" lengthAdjust="spacing" textLength="183.7329" x="902.0936" y="426.1386">Book Multi-city Trip</text></g><!--entity UC_PayM--><g class="entity" data-qualified-name="Korean Air Reservation System.UC_PayM" data-source-line="41" id="ent0017"><ellipse cx="1040.0026" cy="717.604" fill="#FFCCCC" rx="156.788" ry="34.6076" style="stroke:#CC0000;stroke-width:4.0625;"/><text fill="#000000" font-family="sans-serif" font-size="18.9583" lengthAdjust="spacing" textLength="184.6308" x="947.6872" y="710.8588">Pay with KakaoPay /</text><text fill="#000000" font-family="sans-serif" font-size="18.9583" lengthAdjust="spacing" textLength="228.0369" x="925.9842" y="733.1867">ApplePay / Bank transfer</text></g><!--entity UC_Mile--><g class="entity" data-qualified-name="Korean Air Reservation System.UC_Mile" data-source-line="42" id="ent0018"><ellipse cx="1424.5877" cy="717.6043" fill="#FFCCCC" rx="98.5606" ry="22.9621" style="stroke:#CC0000;stroke-width:4.0625;"/><text fill="#000000" font-family="sans-serif" font-size="18.9583" lengthAdjust="spacing" textLength="152.4998" x="1348.3378" y="724.0287">Pay with Mileage</text></g><!--entity UC_Set--><g class="entity" data-qualified-name="Korean Air Reservation System.UC_Set" data-source-line="43" id="ent0019"><ellipse cx="1790.2112" cy="419.7253" fill="#FFCCCC" rx="155.4206" ry="34.3341" style="stroke:#CC0000;stroke-width:4.0625;"/><text fill="#000000" font-family="sans-serif" font-size="18.9583" lengthAdjust="spacing" textLength="170.5695" x="1704.9265" y="412.305">Configure Settings</text><text fill="#000000" font-family="sans-serif" font-size="18.9583" lengthAdjust="spacing" textLength="230.2956" x="1675.0634" y="434.6328">(font / currency / theme)</text></g><!--entity UC_Seat--><g class="entity" data-qualified-name="Korean Air Reservation System.UC_Seat" data-source-line="44" id="ent0020"><ellipse cx="2239.7906" cy="419.7218" fill="#FFCCCC" rx="165.2885" ry="36.3077" style="stroke:#CC0000;stroke-width:4.0625;"/><text fill="#000000" font-family="sans-serif" font-size="18.9583" lengthAdjust="spacing" textLength="184.9363" x="2147.3224" y="410.8954">Select Seat Add-ons</text><text fill="#000000" font-family="sans-serif" font-size="18.9583" lengthAdjust="spacing" textLength="265.898" x="2106.8415" y="433.2232">(window / legroom / lounge)</text></g><!--entity UC_Fmt--><g class="entity" data-qualified-name="Korean Air Reservation System.UC_Fmt" data-source-line="45" id="ent0021"><ellipse cx="1056.2448" cy="1026.6531" fill="#FFCCCC" rx="173.8563" ry="38.0213" style="stroke:#CC0000;stroke-width:4.0625;"/><text fill="#000000" font-family="sans-serif" font-size="18.9583" lengthAdjust="spacing" textLength="217.5858" x="947.4519" y="1018.1691">Toggle e-Ticket Format</text><text fill="#000000" font-family="sans-serif" font-size="18.9583" lengthAdjust="spacing" textLength="284.2269" x="914.1314" y="1040.497">(plain / HTML / boarding pass)</text></g><!--entity UC_City--><g class="entity" data-qualified-name="Korean Air Reservation System.UC_City" data-source-line="46" id="ent0022"><ellipse cx="2650.1023" cy="419.7138" fill="#FFCCCC" rx="116.7814" ry="34.1059" style="stroke:#CC0000;stroke-width:4.0625;"/><text fill="#000000" font-family="sans-serif" font-size="18.9583" lengthAdjust="spacing" textLength="129.9035" x="2585.1505" y="412.7479">Search by City</text><text fill="#000000" font-family="sans-serif" font-size="18.9583" lengthAdjust="spacing" textLength="167.5424" x="2566.331" y="435.0758">(grouped airports)</text></g><!--entity UC_Refund--><g class="entity" data-qualified-name="Korean Air Reservation System.UC_Refund" data-source-line="47" id="ent0023"><ellipse cx="3369.1682" cy="419.725" fill="#FFCCCC" rx="118.3151" ry="26.913" style="stroke:#CC0000;stroke-width:4.0625;"/><text fill="#000000" font-family="sans-serif" font-size="18.9583" lengthAdjust="spacing" textLength="199.3772" x="3269.4796" y="426.1494">Review Refund Queue</text></g><!--entity Member--><g class="entity" data-qualified-name="Member" data-source-line="24" id="ent0001"><ellipse cx="1243.1308" cy="92.0516" fill="#F1F1F1" rx="10.8333" ry="10.8333" style="stroke:#181818;stroke-width:0.6771;"/><path d="M1243.1308,102.8849 L1243.1308,139.4474 M1225.5266,113.7183 L1260.735,113.7183 M1243.1308,139.4474 L1225.5266,159.7599 M1243.1308,139.4474 L1260.735,159.7599" fill="none" style="stroke:#181818;stroke-width:0.6771;"/><text fill="#000000" font-family="sans-serif" font-size="18.9583" lengthAdjust="spacing" textLength="72.9266" x="1205.7094" y="180.12">Skypass</text><text fill="#000000" font-family="sans-serif" font-size="18.9583" lengthAdjust="spacing" textLength="74.8428" x="1205.7094" y="202.4479">Member</text></g><!--entity Guest--><g class="entity" data-qualified-name="Guest" data-source-line="25" id="ent0002"><ellipse cx="686.5645" cy="368.2745" fill="#F1F1F1" rx="10.8333" ry="10.8333" style="stroke:#181818;stroke-width:0.6771;"/><path d="M686.5645,379.1078 L686.5645,415.6703 M668.9603,389.9412 L704.1686,389.9412 M686.5645,415.6703 L668.9603,435.9828 M686.5645,415.6703 L704.1686,435.9828" fill="none" style="stroke:#181818;stroke-width:0.6771;"/><text fill="#000000" font-family="sans-serif" font-size="18.9583" lengthAdjust="spacing" textLength="52.7834" x="619.2198" y="456.343">Guest</text><text fill="#000000" font-family="sans-serif" font-size="18.9583" lengthAdjust="spacing" textLength="134.6893" x="619.2198" y="478.6708">(non-member)</text></g><!--entity Admin--><g class="entity" data-qualified-name="Admin" data-source-line="26" id="ent0003"><ellipse cx="3817.3963" cy="103.2235" fill="#F1F1F1" rx="10.8333" ry="10.8333" style="stroke:#181818;stroke-width:0.6771;"/><path d="M3817.3963,114.0568 L3817.3963,150.6193 M3799.7921,124.8901 L3835.0005,124.8901 M3817.3963,150.6193 L3799.7921,170.9318 M3817.3963,150.6193 L3835.0005,170.9318" fill="none" style="stroke:#181818;stroke-width:0.6771;"/><text fill="#000000" font-family="sans-serif" font-size="18.9583" lengthAdjust="spacing" textLength="126.9135" x="3753.9396" y="191.2919">Administrator</text></g><!--entity Skypass--><g class="entity" data-qualified-name="Skypass" data-source-line="27" id="ent0004"><ellipse cx="3579.0673" cy="986.368" fill="#F1F1F1" rx="10.8333" ry="10.8333" style="stroke:#181818;stroke-width:0.6771;"/><path d="M3579.0673,997.2014 L3579.0673,1033.7639 M3561.4631,1008.0347 L3596.6715,1008.0347 M3579.0673,1033.7639 L3561.4631,1054.0764 M3579.0673,1033.7639 L3596.6715,1054.0764" fill="none" style="stroke:#181818;stroke-width:0.6771;"/><text fill="#000000" font-family="sans-serif" font-size="18.9583" lengthAdjust="spacing" textLength="72.9266" x="3542.604" y="1074.4365">Skypass</text><text fill="#000000" font-family="sans-serif" font-size="18.9583" lengthAdjust="spacing" textLength="65.1322" x="3542.604" y="1096.7643">System</text><text fill="#000000" font-family="sans-serif" font-size="18.9583" font-style="italic" lengthAdjust="spacing" textLength="95.1805" x="3531.4771" y="970.8586">&#171;external&#187;</text></g><!--entity Gds--><g class="entity" data-qualified-name="Gds" data-source-line="28" id="ent0005"><ellipse cx="3579.0673" cy="688.492" fill="#F1F1F1" rx="10.8333" ry="10.8333" style="stroke:#181818;stroke-width:0.6771;"/><path d="M3579.0673,699.3253 L3579.0673,735.8878 M3561.4631,710.1586 L3596.6715,710.1586 M3579.0673,735.8878 L3561.4631,756.2003 M3579.0673,735.8878 L3596.6715,756.2003" fill="none" style="stroke:#181818;stroke-width:0.6771;"/><text fill="#000000" font-family="sans-serif" font-size="18.9583" lengthAdjust="spacing" textLength="38.1111" x="3560.0118" y="776.5604">GDS</text><text fill="#000000" font-family="sans-serif" font-size="18.9583" font-style="italic" lengthAdjust="spacing" textLength="95.1805" x="3531.4771" y="672.9825">&#171;external&#187;</text></g><!--entity Pay--><g class="entity" data-qualified-name="Pay" data-source-line="29" id="ent0006"><ellipse cx="704.1715" cy="986.368" fill="#F1F1F1" rx="10.8333" ry="10.8333" style="stroke:#181818;stroke-width:0.6771;"/><path d="M704.1715,997.2014 L704.1715,1033.7639 M686.5673,1008.0347 L721.7756,1008.0347 M704.1715,1033.7639 L686.5673,1054.0764 M704.1715,1033.7639 L721.7756,1054.0764" fill="none" style="stroke:#181818;stroke-width:0.6771;"/><text fill="#000000" font-family="sans-serif" font-size="18.9583" lengthAdjust="spacing" textLength="77.9717" x="665.1856" y="1074.4365">Payment</text><text fill="#000000" font-family="sans-serif" font-size="18.9583" lengthAdjust="spacing" textLength="76.8053" x="665.1856" y="1096.7643">Gateway</text><text fill="#000000" font-family="sans-serif" font-size="18.9583" font-style="italic" lengthAdjust="spacing" textLength="95.1805" x="656.5813" y="970.8586">&#171;external&#187;</text></g><!--link Member to UC_Search--><g class="link" data-entity-1="ent0001" data-entity-2="ent0008" data-link-type="dependency" data-source-line="50" id="lnk24"><path d="M1280.7979,147.8026 C1579.3781,171.1214 3551.9792,325.1849 3551.9792,325.1849 C3551.9792,325.1849 3551.9792,482.6745 3551.9792,482.6745 C3551.9792,482.6745 2914.2483,647.8372 2714.7931,699.4987" fill="none" id="Member-to-UC_Search" style="stroke:#181818;stroke-width:2.1667;"/><polygon fill="#181818" points="2708.2385,701.1964,2721.3949,703.3841,2714.7931,699.4987,2718.6785,692.8969,2708.2385,701.1964" style="stroke:#181818;stroke-width:2.1667;stroke-linejoin:miter;stroke-miterlimit:10;"/></g><!--link Member to UC_Book--><g class="link" data-entity-1="ent0001" data-entity-2="ent0009" data-link-type="dependency" data-source-line="51" id="lnk25"><path d="M1205.5875,150.4433 C1033.5813,176.0506 329.0625,280.9308 329.0625,280.9308 C329.0625,280.9308 329.0625,580.1745 329.0625,580.1745 C329.0625,580.1745 1587.0833,654.6537 1587.0833,654.6537 C1587.0833,654.6537 1642.8376,678.8006 1684.9522,697.0547" fill="none" id="Member-to-UC_Book" style="stroke:#181818;stroke-width:2.1667;"/><polygon fill="#181818" points="1691.1646,699.7474,1682.1365,689.9307,1684.9522,697.0547,1677.8282,699.8705,1691.1646,699.7474" style="stroke:#181818;stroke-width:2.1667;stroke-linejoin:miter;stroke-miterlimit:10;"/></g><!--link Guest to UC_Book--><g class="link" data-entity-1="ent0002" data-entity-2="ent0009" data-link-type="dependency" data-source-line="52" id="lnk26"><path d="M754.1354,472.2881 C815.4927,518.8037 896.4583,580.1745 896.4583,580.1745 C896.4583,580.1745 1587.0833,654.6537 1587.0833,654.6537 C1587.0833,654.6537 1642.8376,678.8006 1684.9522,697.0547" fill="none" id="Guest-to-UC_Book" style="stroke:#181818;stroke-width:2.1667;"/><polygon fill="#181818" points="1691.1646,699.7474,1682.1365,689.9307,1684.9522,697.0547,1677.8282,699.8705,1691.1646,699.7474" style="stroke:#181818;stroke-width:2.1667;stroke-linejoin:miter;stroke-miterlimit:10;"/></g><!--link Guest to UC_Search--><g class="link" data-entity-1="ent0002" data-entity-2="ent0008" data-link-type="dependency" data-source-line="53" id="lnk27"><path d="M754.2708,448.0891 C795.749,464.637 840.9375,482.6745 840.9375,482.6745 C840.9375,482.6745 1312.1875,580.1745 1312.1875,580.1745 C1312.1875,580.1745 2345.4167,654.6537 2345.4167,654.6537 C2345.4167,654.6537 2488.1582,683.5102 2577.7363,701.6154" fill="none" id="Guest-to-UC_Search" style="stroke:#181818;stroke-width:2.1667;"/><polygon fill="#181818" points="2584.3729,702.9568,2573.5001,695.233,2577.7363,701.6154,2571.3539,705.8516,2584.3729,702.9568" style="stroke:#181818;stroke-width:2.1667;stroke-linejoin:miter;stroke-miterlimit:10;"/></g><!--link Member to UC_Lookup--><g class="link" data-entity-1="ent0001" data-entity-2="ent0013" data-link-type="dependency" data-source-line="54" id="lnk28"><path d="M1281.2177,149.1839 C1522.774,176.6058 2831.5625,325.1849 2831.5625,325.1849 C2831.5625,325.1849 2906.5884,364.5837 2959.1165,392.1816" fill="none" id="Member-to-UC_Lookup" style="stroke:#181818;stroke-width:2.1667;"/><polygon fill="#181818" points="2965.1104,395.3308,2956.8407,384.8671,2959.1165,392.1816,2951.802,394.4574,2965.1104,395.3308" style="stroke:#181818;stroke-width:2.1667;stroke-linejoin:miter;stroke-miterlimit:10;"/></g><!--link Member to UC_Cancel--><g class="link" data-entity-1="ent0001" data-entity-2="ent0014" data-link-type="dependency" data-source-line="55" id="lnk29"><path d="M1205.1542,154.8037 C1060.949,192.612 555.2083,325.1849 555.2083,325.1849 C555.2083,325.1849 555.2083,482.6745 555.2083,482.6745 C555.2083,482.6745 1179.4792,580.1745 1179.4792,580.1745 C1179.4792,580.1745 1870.1042,654.6537 1870.1042,654.6537 C1870.1042,654.6537 2012.7974,682.6279 2105.5442,700.8144" fill="none" id="Member-to-UC_Cancel" style="stroke:#181818;stroke-width:2.1667;"/><polygon fill="#181818" points="2112.1885,702.1172,2101.2711,694.4566,2105.5442,700.8144,2099.1865,705.0875,2112.1885,702.1172" style="stroke:#181818;stroke-width:2.1667;stroke-linejoin:miter;stroke-miterlimit:10;"/></g><!--link Member to UC_Conn--><g class="link" data-entity-1="ent0001" data-entity-2="ent0015" data-link-type="dependency" data-source-line="56" id="lnk30"><path d="M1272.0094,206.912 C1298.4833,263.8141 1333.6919,339.4537 1353.8419,382.7464" fill="none" id="Member-to-UC_Conn" style="stroke:#181818;stroke-width:2.1667;"/><polygon fill="#181818" points="1356.699,388.8849,1356.467,375.55,1353.8419,382.7464,1346.6454,380.1213,1356.699,388.8849" style="stroke:#181818;stroke-width:2.1667;stroke-linejoin:miter;stroke-miterlimit:10;"/></g><!--link Member to UC_Multi--><g class="link" data-entity-1="ent0001" data-entity-2="ent0016" data-link-type="dependency" data-source-line="57" id="lnk31"><path d="M1205.276,186.3964 C1152.4635,244.3818 1062.8949,342.6856 1020.4011,389.3367" fill="none" id="Member-to-UC_Multi" style="stroke:#181818;stroke-width:2.1667;"/><polygon fill="#181818" points="1015.8417,394.3422,1028.0531,388.9798,1020.4011,389.3367,1020.0443,381.6847,1015.8417,394.3422" style="stroke:#181818;stroke-width:2.1667;stroke-linejoin:miter;stroke-miterlimit:10;"/></g><!--link Member to UC_PayM--><g class="link" data-entity-1="ent0001" data-entity-2="ent0017" data-link-type="dependency" data-source-line="58" id="lnk32"><path d="M1205.1135,149.1568 C1000.4719,172.286 39.2708,280.9308 39.2708,280.9308 C39.2708,280.9308 39.2708,580.1745 39.2708,580.1745 C39.2708,580.1745 629.6951,660.4579 901.4357,697.4132" fill="none" id="Member-to-UC_PayM" style="stroke:#181818;stroke-width:2.1667;"/><polygon fill="#181818" points="908.1448,698.3256,896.7984,691.316,901.4357,697.4132,895.3385,702.0505,908.1448,698.3256" style="stroke:#181818;stroke-width:2.1667;stroke-linejoin:miter;stroke-miterlimit:10;"/></g><!--link Member to UC_Mile--><g class="link" data-entity-1="ent0001" data-entity-2="ent0018" data-link-type="dependency" data-source-line="59" id="lnk33"><path d="M1205.4385,149.2245 C1004.7104,172.5162 70.4167,280.9308 70.4167,280.9308 C70.4167,280.9308 70.4167,580.1745 70.4167,580.1745 C70.4167,580.1745 1260.7292,654.6537 1260.7292,654.6537 C1260.7292,654.6537 1319.6084,676.7806 1367.749,694.8858" fill="none" id="Member-to-UC_Mile" style="stroke:#181818;stroke-width:2.1667;"/><polygon fill="#181818" points="1374.0865,697.2693,1364.5858,687.9091,1367.749,694.8858,1360.7723,698.0491,1374.0865,697.2693" style="stroke:#181818;stroke-width:2.1667;stroke-linejoin:miter;stroke-miterlimit:10;"/></g><!--link Member to UC_Set--><g class="link" data-entity-1="ent0001" data-entity-2="ent0019" data-link-type="dependency" data-source-line="60" id="lnk34"><path d="M1281.1635,163.8631 C1374.4521,210.5141 1609.2208,327.8856 1722.9437,384.7335" fill="none" id="Member-to-UC_Set" style="stroke:#181818;stroke-width:2.1667;"/><polygon fill="#181818" points="1729,387.761,1720.5206,377.4665,1722.9437,384.7335,1715.6767,387.1566,1729,387.761" style="stroke:#181818;stroke-width:2.1667;stroke-linejoin:miter;stroke-miterlimit:10;"/></g><!--link Member to UC_Seat--><g class="link" data-entity-1="ent0001" data-entity-2="ent0020" data-link-type="dependency" data-source-line="61" id="lnk35"><path d="M1281.1365,153.8016 C1435.7958,190.1881 2009.5833,325.1849 2009.5833,325.1849 C2009.5833,325.1849 2089.3373,357.4603 2156.2196,384.5301" fill="none" id="Member-to-UC_Seat" style="stroke:#181818;stroke-width:2.1667;"/><polygon fill="#181818" points="2162.4958,387.0703,2153.2308,377.4769,2156.2196,384.5301,2149.1664,387.5189,2162.4958,387.0703" style="stroke:#181818;stroke-width:2.1667;stroke-linejoin:miter;stroke-miterlimit:10;"/></g><!--link Member to UC_Fmt--><g class="link" data-entity-1="ent0001" data-entity-2="ent0021" data-link-type="dependency" data-source-line="62" id="lnk36"><path d="M1205.4927,149.0078 C998.5083,171.812 8.125,280.9308 8.125,280.9308 C8.125,280.9308 8.125,580.1745 8.125,580.1745 C8.125,580.1745 729.1887,886.3997 972.0991,989.5601" fill="none" id="Member-to-UC_Fmt" style="stroke:#181818;stroke-width:2.1667;"/><polygon fill="#181818" points="978.3313,992.2068,969.2308,982.4571,972.0991,989.5601,964.9961,992.4285,978.3313,992.2068" style="stroke:#181818;stroke-width:2.1667;stroke-linejoin:miter;stroke-miterlimit:10;"/></g><!--link Member to UC_City--><g class="link" data-entity-1="ent0001" data-entity-2="ent0022" data-link-type="dependency" data-source-line="63" id="lnk37"><path d="M1281.1906,150.4433 C1488.2698,180.8849 2470,325.1849 2470,325.1849 C2470,325.1849 2535.2153,358.9209 2588.0955,386.2751" fill="none" id="Member-to-UC_City" style="stroke:#181818;stroke-width:2.1667;"/><polygon fill="#181818" points="2594.1094,389.386,2585.7731,378.9753,2588.0955,386.2751,2580.7957,388.5975,2594.1094,389.386" style="stroke:#181818;stroke-width:2.1667;stroke-linejoin:miter;stroke-miterlimit:10;"/></g><!--link Admin to UC_Refund--><g class="link" data-entity-1="ent0003" data-entity-2="ent0023" data-link-type="dependency" data-source-line="64" id="lnk38"><path d="M3753.6552,183.7558 C3659.8792,240.9693 3493.2058,342.6748 3415.1787,390.2873" fill="none" id="Admin-to-UC_Refund" style="stroke:#181818;stroke-width:2.1667;"/><polygon fill="#181818" points="3409.399,393.8141,3422.624,392.0896,3415.1787,390.2873,3416.9811,382.842,3409.399,393.8141" style="stroke:#181818;stroke-width:2.1667;stroke-linejoin:miter;stroke-miterlimit:10;"/></g><!--link UC_Book to UC_Pax--><g class="link" data-entity-1="ent0009" data-entity-2="ent0010" data-link-type="dependency" data-source-line="66" id="lnk39"><path d="M1737.125,737.6641 C1759.2792,790.3953 1819.6255,934.1269 1844.7588,993.954" fill="none" id="UC_Book-to-UC_Pax" style="stroke:#181818;stroke-width:2.1667;stroke-dasharray:9.4792,9.4792;"/><polygon fill="#181818" points="1847.3813,1000.1964,1847.6548,986.8622,1844.7588,993.954,1837.667,991.0581,1847.3813,1000.1964" style="stroke:#181818;stroke-width:2.1667;stroke-linejoin:miter;stroke-miterlimit:10;"/><text fill="#000000" font-family="sans-serif" font-size="17.6042" lengthAdjust="spacing" textLength="80.3792" x="1794.9479" y="873.4035">&#171;include&#187;</text></g><!--link UC_Book to UC_Pay--><g class="link" data-entity-1="ent0009" data-entity-2="ent0011" data-link-type="dependency" data-source-line="67" id="lnk40"><path d="M1712.574,737.2037 C1663.3094,791.0453 1523.3496,943.9999 1471.9455,1000.1842" fill="none" id="UC_Book-to-UC_Pay" style="stroke:#181818;stroke-width:2.1667;stroke-dasharray:9.4792,9.4792;"/><polygon fill="#181818" points="1467.375,1005.1797,1479.5982,999.8442,1471.9455,1000.1842,1471.6055,992.5315,1467.375,1005.1797" style="stroke:#181818;stroke-width:2.1667;stroke-linejoin:miter;stroke-miterlimit:10;"/><text fill="#000000" font-family="sans-serif" font-size="17.6042" lengthAdjust="spacing" textLength="80.3792" x="1598.8781" y="873.4035">&#171;include&#187;</text></g><!--link UC_Pay to UC_Ticket--><g class="link" data-entity-1="ent0011" data-entity-2="ent0012" data-link-type="dependency" data-source-line="68" id="lnk41"><path d="M1433.8729,1048.337 C1397.2427,1097.7099 1307.9211,1218.0881 1271.5075,1267.1631" fill="none" id="UC_Pay-to-UC_Ticket" style="stroke:#181818;stroke-width:2.1667;stroke-dasharray:9.4792,9.4792;"/><polygon fill="#181818" points="1267.4729,1272.6006,1279.0852,1266.0408,1271.5075,1267.1631,1270.3852,1259.5854,1267.4729,1272.6006" style="stroke:#181818;stroke-width:2.1667;stroke-linejoin:miter;stroke-miterlimit:10;"/><text fill="#000000" font-family="sans-serif" font-size="17.6042" lengthAdjust="spacing" textLength="80.3792" x="1340.3813" y="1193.6233">&#171;include&#187;</text></g><!--link UC_PayM to UC_Pay--><g class="link" data-entity-1="ent0017" data-entity-2="ent0011" data-link-type="dependency" data-source-line="69" id="lnk42"><path d="M1083.374,751.4495 C1168.2802,815.0412 1348.6671,950.1622 1417.3369,1001.6205" fill="none" id="UC_PayM-to-UC_Pay" style="stroke:#CC0000;stroke-width:2.1667;stroke-dasharray:9.4792,9.4792;"/><polygon fill="#CC0000" points="1422.7552,1005.6808,1416.2504,994.0376,1417.3369,1001.6205,1409.754,1002.7069,1422.7552,1005.6808" style="stroke:#CC0000;stroke-width:2.1667;stroke-linejoin:miter;stroke-miterlimit:10;"/><text fill="#000000" font-family="sans-serif" font-size="17.6042" lengthAdjust="spacing" textLength="77.448" x="1245.8333" y="873.4035">&#171;extend&#187;</text></g><!--link UC_Mile to UC_Pay--><g class="link" data-entity-1="ent0018" data-entity-2="ent0011" data-link-type="dependency" data-source-line="70" id="lnk43"><path d="M1420.6698,740.8193 C1413.7771,779.2912 1400.2083,855.0297 1400.2083,855.0297 C1400.2083,855.0297 1400.2083,878.0506 1400.2083,878.0506 C1400.2083,878.0506 1426.6537,957.9373 1440.0464,998.3998" fill="none" id="UC_Mile-to-UC_Pay" style="stroke:#CC0000;stroke-width:2.1667;stroke-dasharray:9.4792,9.4792;"/><polygon fill="#CC0000" points="1442.174,1004.8276,1443.4866,991.5554,1440.0464,998.3998,1433.202,994.9595,1442.174,1004.8276" style="stroke:#CC0000;stroke-width:2.1667;stroke-linejoin:miter;stroke-miterlimit:10;"/><text fill="#000000" font-family="sans-serif" font-size="17.6042" lengthAdjust="spacing" textLength="77.448" x="1401.5625" y="873.4035">&#171;extend&#187;</text></g><!--link UC_Seat to UC_Book--><g class="link" data-entity-1="ent0020" data-entity-2="ent0009" data-link-type="dependency" data-source-line="71" id="lnk44"><path d="M2182.226,454.3589 C2073.4865,517.2328 1847.271,648.0282 1764.8971,695.6542" fill="none" id="UC_Seat-to-UC_Book" style="stroke:#CC0000;stroke-width:2.1667;stroke-dasharray:9.4792,9.4792;"/><polygon fill="#CC0000" points="1759.0354,699.0433,1772.2976,697.6323,1764.8971,695.6542,1766.8751,688.2537,1759.0354,699.0433" style="stroke:#CC0000;stroke-width:2.1667;stroke-linejoin:miter;stroke-miterlimit:10;"/><text fill="#000000" font-family="sans-serif" font-size="17.6042" lengthAdjust="spacing" textLength="77.448" x="2001.1875" y="575.5275">&#171;extend&#187;</text></g><!--link UC_City to UC_Search--><g class="link" data-entity-1="ent0022" data-entity-2="ent0008" data-link-type="dependency" data-source-line="72" id="lnk45"><path d="M2650.1042,454.3589 C2650.1042,516.0276 2650.1042,639.5141 2650.1042,689.4287" fill="none" id="UC_City-to-UC_Search" style="stroke:#CC0000;stroke-width:2.1667;stroke-dasharray:9.4792,9.4792;"/><polygon fill="#CC0000" points="2650.1042,696.1995,2655.5208,684.012,2650.1042,689.4287,2644.6875,684.012,2650.1042,696.1995" style="stroke:#CC0000;stroke-width:2.1667;stroke-linejoin:miter;stroke-miterlimit:10;"/><text fill="#000000" font-family="sans-serif" font-size="17.6042" lengthAdjust="spacing" textLength="77.448" x="2651.4583" y="575.5275">&#171;extend&#187;</text></g><!--link UC_Fmt to UC_Ticket--><g class="link" data-entity-1="ent0021" data-entity-2="ent0012" data-link-type="dependency" data-source-line="73" id="lnk46"><path d="M1083.55,1064.8037 C1125.7052,1121.611 1201.133,1223.2746 1233.8903,1267.4204" fill="none" id="UC_Fmt-to-UC_Ticket" style="stroke:#CC0000;stroke-width:2.1667;stroke-dasharray:9.4792,9.4792;"/><polygon fill="#CC0000" points="1237.925,1272.8578,1235.0125,1259.8428,1233.8903,1267.4204,1226.3126,1266.2983,1237.925,1272.8578" style="stroke:#CC0000;stroke-width:2.1667;stroke-linejoin:miter;stroke-miterlimit:10;"/><text fill="#000000" font-family="sans-serif" font-size="17.6042" lengthAdjust="spacing" textLength="77.448" x="1179.1406" y="1193.6233">&#171;extend&#187;</text></g><!--link UC_Refund to UC_Cancel--><g class="link" data-entity-1="ent0023" data-entity-2="ent0014" data-link-type="dependency" data-source-line="74" id="lnk47"><path d="M3304.7083,442.7943 C3252.0854,460.5203 3186.3542,482.6745 3186.3542,482.6745 C3186.3542,482.6745 2481.1983,647.0366 2257.3951,699.1991" fill="none" id="UC_Refund-to-UC_Cancel" style="stroke:#CC0000;stroke-width:2.1667;stroke-dasharray:9.4792,9.4792;"/><polygon fill="#CC0000" points="2250.801,700.736,2263.8999,703.2448,2257.3951,699.1991,2261.4409,692.6943,2250.801,700.736" style="stroke:#CC0000;stroke-width:2.1667;stroke-linejoin:miter;stroke-miterlimit:10;"/><text fill="#000000" font-family="sans-serif" font-size="17.6042" lengthAdjust="spacing" textLength="77.448" x="2863.575" y="575.5275">&#171;extend&#187;</text></g><!--link UC_Conn to UC_Book--><g class="link" data-entity-1="ent0015" data-entity-2="ent0009" data-link-type="dependency" data-source-line="75" id="lnk48"><path d="M1404.826,449.3756 C1477.8021,509.4058 1641.1535,643.7572 1701.7931,693.6447" fill="none" id="UC_Conn-to-UC_Book" style="stroke:#181818;stroke-width:2.1667;stroke-dasharray:9.4792,9.4792;"/><polygon fill="#181818" points="1707.0219,697.9464,1701.0514,686.0204,1701.7931,693.6447,1694.1688,694.3864,1707.0219,697.9464" style="stroke:#181818;stroke-width:2.1667;stroke-linejoin:miter;stroke-miterlimit:10;"/><text fill="#000000" font-family="sans-serif" font-size="17.6042" lengthAdjust="spacing" textLength="80.3792" x="1561.9635" y="575.5275">&#171;include&#187;</text></g><!--link UC_Multi to UC_Book--><g class="link" data-entity-1="ent0016" data-entity-2="ent0009" data-link-type="dependency" data-source-line="76" id="lnk49"><path d="M1048.1656,442.4151 C1194.5917,500.0756 1587.0833,654.6537 1587.0833,654.6537 C1587.0833,654.6537 1642.8376,678.8006 1684.9522,697.0547" fill="none" id="UC_Multi-to-UC_Book" style="stroke:#181818;stroke-width:2.1667;stroke-dasharray:9.4792,9.4792;"/><polygon fill="#181818" points="1691.1646,699.7474,1682.1365,689.9307,1684.9522,697.0547,1677.8282,699.8705,1691.1646,699.7474" style="stroke:#181818;stroke-width:2.1667;stroke-linejoin:miter;stroke-miterlimit:10;"/><text fill="#000000" font-family="sans-serif" font-size="17.6042" lengthAdjust="spacing" textLength="80.3792" x="1396.5927" y="575.5275">&#171;include&#187;</text></g><!--link UC_Mile to Skypass--><g class="link" data-entity-1="ent0018" data-entity-2="ent0004" data-link-type="dependency" data-source-line="78" id="lnk50"><path d="M1475.0802,737.9349 C1523.2208,756.0401 1588.4375,780.5506 1588.4375,780.5506 C1588.4375,780.5506 3524.8958,952.5297 3524.8958,952.5297 C3524.8958,952.5297 3522.6016,949.4533 3525.4724,953.3127" fill="none" id="UC_Mile-to-Skypass" style="stroke:#CC0000;stroke-width:2.1667;stroke-dasharray:9.4792,9.4792;"/><polygon fill="#CC0000" points="3529.5135,958.7453,3526.5856,945.7337,3525.4724,953.3127,3517.8934,952.1995,3529.5135,958.7453" style="stroke:#CC0000;stroke-width:2.1667;stroke-linejoin:miter;stroke-miterlimit:10;"/></g><!--link UC_PayM to Pay--><g class="link" data-entity-1="ent0017" data-entity-2="ent0006" data-link-type="dependency" data-source-line="79" id="lnk51"><path d="M1004.0604,751.7474 C943.651,806.8485 826.6836,913.5438 758.3794,975.849" fill="none" id="UC_PayM-to-Pay" style="stroke:#181818;stroke-width:2.1667;"/><polygon fill="#181818" points="753.3771,980.412,766.0317,976.2005,758.3794,975.849,758.7309,968.1968,753.3771,980.412" style="stroke:#181818;stroke-width:2.1667;stroke-linejoin:miter;stroke-miterlimit:10;"/></g><!--link UC_Conn to Gds--><g class="link" data-entity-1="ent0015" data-entity-2="ent0005" data-link-type="dependency" data-source-line="80" id="lnk52"><path d="M1448.4708,445.0693 C1504.75,462.362 1570.8333,482.6745 1570.8333,482.6745 C1570.8333,482.6745 2973.75,557.1537 2973.75,557.1537 C2973.75,557.1537 3524.8958,654.6537 3524.8958,654.6537 C3524.8958,654.6537 3522.1707,651.5605 3525.0415,654.8241" fill="none" id="UC_Conn-to-Gds" style="stroke:#181818;stroke-width:2.1667;stroke-dasharray:9.4792,9.4792;"/><polygon fill="#181818" points="3529.5135,659.9078,3525.5309,647.1794,3525.0415,654.8241,3517.3968,654.3347,3529.5135,659.9078" style="stroke:#181818;stroke-width:2.1667;stroke-linejoin:miter;stroke-miterlimit:10;"/></g><?plantuml-src ZLNHRjis57tNLrnaBys3dGPD1sp83AHgtGMDWQvsdvPXeALhYH152YGLHoWAx2FsXVkINLAKJSlAC0M8fSEZmyjxpxsot0g4hmOXPVJlFMU5PZNyyzVVaBPrAvZbJmYsrAejIhYtg0bH4cuUvIkDEVm2BRsMqRi69Ev51oZPLj2Aqf2LJ1PqosNyvcLYLGDMmLPPgsh8kSRCBIMcuh9XRd_19TgkGMYKwDn3jAQPh0msS7tzEaAboj6XFxsDm8Pb5IjmRJiwfDk5uX6nbYbPhlPS5h1ZmiGhUSFX-asymvtMQhyfULP9D0QkvpycjyOfBnBAWKi1V4i0tj6U1QLBvgaIb8GVFgJkZrOUw1m1U-klWCMQDydtPCufMJVJOijbIjUfM9g-fkjCx0r9tLw524kU8zpUUkN50Wpzed8PJXAMMLAvM5TTmunvb2kijwWlW1deRmV6nnQDfRfB9MUrNxdqB8yFfBkyvf8RIzLMlOX7pdPPTnH3xGa1e_3mcUAIJ2mMXptVh_izykdrpwohKL9K7vd5FUiycS1JSdAeFLnyKXgPX3kkuGivHZ_rjXpYSLaVodcnHgQp4fQ25wKrNljh-cUFnhntIbM1DP0S55C-I8g68ZC6gISqtCkT6hYVsNDCNR4A8HpiIEbYohqnBGBEDbHiF93wfvZtu09hc_Ya0zajjKrCJfdCKC0LiNVak87OmnDfIPMKhdEfUqOPSYjd-Lcrml9Pncq76ysRWUlXcEogj-UsX4-iOiezNJtAkwOHwE-f9sG5v2zfTi6cVNvMHtzFogsuG1e6XttfSVeDYdx7YrOZhD6wuv5TN-sKjBHvrcgDCdDns19hl3oQmawhhL5GaaYAMMg5VAQaawEPGuE7L0HIVzCKf3jgyo8MP2yeRbJXd3nK7vPArymrPYCOZTeh-7MpUg2VhM8wTzLntNNGNTOl1kghkkqWfHgHd1iy3OrlndMZj3rAkFLfZI_un74V30I_jTWUyXsmuslVawIVBp2RBQA-EWLz7_a9yp8o-MBmzoaOl3m2dLjFeTwKfvYps9X67ZexX3q_rXYY6enZe9GcVb8EI9-l90adXlayHF4CFxiioaoqEL8UpmZTES61OJsOPegoWldluMlonwcOcwKoxuc-SVuFqJjuJFIXZfdUK6DcyEEOw_mxfaPdYgd1ScDsc7DdGP0DXYGTeZn9aNV5Vr2cinC-RuSSk_gwSHvlIP-tVm40?></g></svg>